PathFileType	4	(X/Y/Z)	RBDS028\RBDS028runT35.trc
DataRate	CameraRate	NumFrames	NumMarkers	Units	OrigDataRate	OrigDataStartFrame	OrigNumFrames
150.000000	150.000000	4	33	mm	150.000000	2250	4500
Frame#	Time	L.ASIS			L.Heel.Bottom			L.Heel.Lateral			L.Heel.Top			L.Iliac.Crest			L.MT1			L.MT5			L.PSIS			L.Shank.Bottom.Lateral			L.Shank.Bottom.Medial			L.Shank.Top.Lateral			L.Shank.Top.Medial			L.Thigh.Bottom.Lateral			L.Thigh.Bottom.Medial			L.Thigh.Top.Lateral			L.Thigh.Top.Medial			R.ASIS			R.ASY			R.Heel.Bottom			R.Heel.Lateral			R.Heel.Top			R.Iliac.Crest			R.MT1			R.MT5			R.PSIS			R.Shank.Bottom.Lateral			R.Shank.Bottom.Medial			R.Shank.Top.Lateral			R.Shank.Top.Medial			R.Thigh.Bottom.Lateral			R.Thigh.Bottom.Medial			R.Thigh.Top.Lateral			R.Thigh.Top.Medial			
		X1	Y1	Z1	X2	Y2	Z2	X3	Y3	Z3	X4	Y4	Z4	X5	Y5	Z5	X6	Y6	Z6	X7	Y7	Z7	X8	Y8	Z8	X9	Y9	Z9	X10	Y10	Z10	X11	Y11	Z11	X12	Y12	Z12	X13	Y13	Z13	X14	Y14	Z14	X15	Y15	Z15	X16	Y16	Z16	X17	Y17	Z17	X18	Y18	Z18	X19	Y19	Z19	X20	Y20	Z20	X21	Y21	Z21	X22	Y22	Z22	X23	Y23	Z23	X24	Y24	Z24	X25	Y25	Z25	X26	Y26	Z26	X27	Y27	Z27	X28	Y28	Z28	X29	Y29	Z29	X30	Y30	Z30	X31	Y31	Z31	X32	Y32	Z32	X33	Y33	Z33	

2251	15	1988.759101930551	879.3668859388191	877.464432166017	2060.896086103576	35.30688747839478	960.4770983146589	2088.045680350257	44.23784899096886	913.2263168148567	2068.321775228831	78.79065713560436	951.0419852877341	1916.572150629162	929.3099108803395	844.650717942274	2278.527059949547	65.48682893904866	993.0048602165388	2241.217522340154	37.80490890978125	887.7629348138198	1837.549721866936	891.9145173551592	948.9354972257437	2113.310043185633	169.1230189915814	886.624927085642	2077.22586534321	166.0773626722962	922.3868387484038	2091.522598755138	243.9562982414038	865.8956524202752	2057.014162237632	246.4956232748913	906.2934465962252	2069.759584548233	563.8381273790387	828.2240201333587	2011.434664433376	534.0308401930635	859.8285444168987	2015.288059999066	658.587434933674	816.6858119279404	1959.018663116178	629.2822544991117	845.5523381296103	1996.71232260981	869.0517940137531	1111.612625249532	1476.364740134467	265.071473390261	1035.175805350009	1429.619335341924	440.1591741034011	988.6533334320219	1440.613801669279	416.970464677096	1037.517289489935	1472.85200002021	429.3974369531896	997.6432020319781	1951.60787917323	937.4009842330903	1127.523051535684	1439.003947329442	220.8059720080786	986.1461052439533	1413.826048768714	272.5791945766493	1084.230342370145	1846.334322490355	897.4047401297189	1042.088751530109	1551.813803120185	394.6394796621925	1073.9392599056	1550.19728298663	429.2920284606984	1030.847248664182	1623.113902393339	427.8563786236971	1095.586762542036	1620.89143461993	460.3673643542172	1052.850630724435	1875.861427468559	529.0150758219943	1140.524167163095	1820.912307881147	541.4932776634549	1096.465725476816	1888.598988773737	638.1090401017429	1153.034833663751	1834.439308959247	649.4691898674165	1112.785649198687	
2252	15.00666666666667	1987.127711975519	875.360137269705	876.2701283667473	2041.735468789724	33.57598680231705	964.2761060122574	2068.313163134062	42.84199041369021	916.7445984575633	2050.364658983225	76.99649375450646	955.8184848550885	1915.042502532621	924.9410666473764	844.5570744635484	2261.141234422359	57.59342618083039	993.5106428997866	2221.013637700042	33.72973947568509	887.8964246190752	1836.845048612407	886.8206061279382	950.1560626331382	2099.395142892272	163.9324845732028	889.8089336660701	2063.207723490624	162.9132043180095	925.502036447911	2080.459156829935	239.2014402195672	868.1059341683692	2046.294791361261	243.7155909615422	908.5933738141163	2066.123110600496	558.9337654000116	827.8769511096269	2008.420428130955	529.5328246224821	860.7828695914404	2011.690673534036	653.7523141412817	816.5399487996193	1955.959798411407	624.7828360121812	846.5155348149806	1997.819708277609	865.4970194405248	1111.013208151642	1482.522803149847	275.6319250787785	1035.886180370446	1444.409382631342	452.6228770569332	989.439541364029	1454.562223664961	428.8903076643541	1038.337904532885	1487.135335078451	439.6648274759375	998.248967297239	1951.656435076913	932.9027285226758	1127.958263898074	1442.907783611671	232.8122136035235	986.9385920957985	1420.855857264912	285.9185712023499	1085.076661446682	1846.597440317485	891.8148078800732	1043.139153505218	1563.516993377742	400.8719917697463	1075.06798059479	1563.776243175657	435.7671011826233	1032.230293706904	1636.13756031269	430.5600014536014	1097.396475895116	1635.688918407456	463.3597970823105	1054.846330844905	1885.477655821881	522.1761844366011	1143.010544755431	1830.826464844784	532.3630369703321	1098.080182894967	1894.741998191275	631.8172829048394	1154.256684132831	1840.648586220478	640.9923973666589	1113.346098719548	
2253	15.01333333333333	1985.293768817686	870.9815970614025	874.9344746590817	2020.89417406174	31.80214844684077	967.6843936017929	2047.066648059025	41.85974206779775	920.1181229122326	2030.604882693678	75.22707759602838	960.5733057634873	1913.28461925512	919.9627523067804	844.5378250173225	2241.885826393151	50.41377753293146	994.5298121047218	2199.370712754426	30.75767075030654	888.3909321926686	1835.945818122231	881.3583296014298	951.5122662187982	2084.337688983381	158.8848017912508	893.2413257120348	2047.844208816399	160.0830477030022	928.5492873693679	2068.665717540192	234.52860542683	870.3372471613789	2034.664253101604	241.2026691421348	910.6313297141845	2062.232441576249	553.6961115432772	827.5644225635666	2005.179736636691	524.7661288530951	861.809874649561	2007.91316866554	648.6509211098412	816.4040290725827	1952.747393089511	620.0801779391577	847.5234913684005	1998.786525816588	861.4385856582586	1110.29179968525	1490.525583161728	284.9157326601681	1036.840118218606	1460.392119080636	463.4218898741372	990.2129828149041	1469.700652299413	439.2606707622263	1039.223872579147	1502.592710547491	448.4871360585465	998.9059729201682	1952.204951920632	927.7756623645649	1128.419001452633	1449.002258160668	243.5168293092514	987.9841480400194	1429.714606811588	297.7492238388933	1086.087551837374	1846.694911152376	885.7626255229002	1044.31644552813	1576.401777691746	406.1022218205927	1076.33399941417	1578.466277845023	441.1028069073079	1033.714918192381	1650.050937969414	432.4548424788744	1099.319210467051	1651.336204568936	465.3796614699409	1056.902085906037	1895.074446763227	515.5186327377799	1145.563285263562	1840.846781794038	523.3433580548858	1099.72753949177	1900.804284297593	625.5874950662303	1155.488354773184	1846.906382319076	632.4956597708818	1113.851493936187	
2254	15.02	1983.237386588469	866.3444854005088	873.5164245286536	1998.853979515934	30.07059407176424	970.6506442694297	2024.795286544254	41.28157329153858	923.2682520277461	2009.483506864068	73.55029151292821	965.1352698769676	1911.303285961667	914.4100228781759	844.6125956938625	2221.16695035647	44.30982044277942	995.9858119414223	2176.772271178077	28.90894238031401	889.2560517552801	1834.805890828008	875.6696894728798	952.9846027212552	2068.352967838692	154.1717737946583	896.7634943533673	2031.409137101861	157.7052273765139	931.4129683147434	2056.248080611323	230.0824328347812	872.4933387721406	2022.269106287834	239.0270488071272	912.3444862420189	2058.007823052524	548.2201181988574	827.2515251113507	2001.59626132672	519.8406042244075	862.8458636831569	2003.919594526612	643.4023593195692	816.2484166223495	1949.315619156632	615.3118610402244	848.5312267795912	1999.537905910973	856.9606688127438	1109.466138061004	1500.298706406394	292.7447420594847	1037.99516633272	1477.206234395227	472.4282457274424	991.0204968352431	1485.725280975525	447.9633432769496	1040.212000240056	1518.90458657833	455.7935114764092	999.6366892146913	1953.115203719764	922.1450510327152	1128.88352541391	1457.213684468617	252.6886257423322	989.2919124354917	1440.303942455103	307.8534995683459	1087.307935081155	1846.548749877566	879.4045576495316	1045.586977350656	1590.319721090108	410.2636147336418	1077.722656219467	1594.075725961176	445.2774889142389	1035.294764535817	1664.746980293474	433.5286412496315	1101.323767946114	1667.678991096573	466.4531248160683	1058.998158611181	1904.74241175403	509.1203815776984	1148.144718181621	1850.991497231056	514.52311814063	1101.466831882237	1906.846809651624	619.4814032121134	1156.742653305187	1853.21452341434	624.0469105401919	1114.415320983102	
